<svg width="199" height="58" viewBox="0 0 199 58" fill="none" xmlns="http://www.w3.org/2000/svg">
<g clip-path="url(#clip0)">
<path d="M0 22.2888V26.7466H4.25322V22.2888H0Z" fill="black"/>
<path d="M20.1536 7.83826C17.4538 7.83826 15.2717 9.06414 13.9033 10.8473H13.7553V0H10.2418V26.7466H13.7553V17.5711C13.7553 13.8934 16.0484 11.2559 19.414 11.2559C22.5946 11.2559 24.4438 13.6334 24.4438 16.8281V26.7466H27.9574V16.1966C27.9574 11.1073 24.8137 7.83826 20.1536 7.83826Z" fill="black"/>
<path d="M46.0591 8.35835H37.7377V1.85742H34.2242V8.35835H30.8956V11.776H34.2242V22.1403C34.2242 25.1121 35.8885 26.7467 38.8843 26.7467H46.0591V23.2919H39.587C38.4034 23.2919 37.7377 22.6232 37.7377 21.4717V11.776H46.0591V8.35835Z" fill="black"/>
<path d="M71.1581 7.87549C68.3471 7.87549 66.2023 9.24997 65.0188 11.4417H64.9078C63.8352 9.28714 61.8381 7.87549 59.1013 7.87549C56.6603 7.87549 54.8109 9.17566 53.7016 10.9959H53.5535V8.35843H50.188V26.7467H53.7016V17.3111C53.7016 13.8563 55.5135 11.3303 58.2507 11.256C60.8393 11.1817 62.3558 13.0391 62.3558 15.8252V26.7467H65.8694V17.0139C65.8694 12.8905 68.3104 11.256 70.4185 11.256C72.9704 11.256 74.4869 13.0391 74.4869 15.8252V26.7467H78.0001V15.4537C78.0001 10.9959 75.4852 7.87549 71.1581 7.87549Z" fill="black"/>
<path d="M82.7619 21.9917C82.7619 25.0007 84.4632 26.7466 87.6067 26.7466H91.0832V23.329H88.1245C86.9409 23.329 86.2751 22.6603 86.2751 21.5088V0H82.7619V21.9917Z" fill="black"/>
<path d="M50.0178 34.1005H49.8697C48.4988 32.254 46.2761 30.9615 43.3119 30.9246C37.8653 30.8507 33.975 34.876 33.975 40.5633C33.975 46.2874 37.9394 50.3129 43.2748 50.2391C46.3128 50.2019 48.4988 48.8356 49.8697 46.8782H50.0178V49.7217H53.501V31.4416H50.0178V34.1005ZM43.7934 46.8415C39.9402 46.8415 37.4948 44.0346 37.4948 40.5633C37.4948 37.0919 39.9402 34.2852 43.7934 34.2852C47.5356 34.2852 49.9811 37.0919 49.9811 40.5633C49.9811 43.9979 47.5356 46.8415 43.7934 46.8415Z" fill="black"/>
<path d="M76.5015 38.0889C75.6492 33.9528 71.9813 30.9246 67.1648 30.9246C61.3479 30.9246 57.4576 35.1715 57.4576 40.5633C57.4576 45.9549 61.3479 50.239 67.1648 50.239C71.9813 50.239 75.6492 47.1368 76.5015 42.9636H72.8336C72.0927 45.2903 69.9066 46.8781 67.2019 46.8781C63.4226 46.8781 60.977 44.0346 60.977 40.5633C60.977 37.0918 63.4226 34.2852 67.2019 34.2852C70.0176 34.2852 72.0927 35.947 72.8336 38.0889H76.5015Z" fill="black"/>
<path d="M95.3185 34.1005H95.1704C93.7995 32.254 91.5763 30.9615 88.6121 30.9246C83.1657 30.8507 79.2754 34.876 79.2754 40.5633C79.2754 46.2874 83.24 50.3129 88.575 50.2391C91.6134 50.2019 93.7995 48.8356 95.1704 46.8782H95.3185V49.7217H98.8012V31.4416H95.3185V34.1005ZM89.094 46.8415C85.2404 46.8415 82.7953 44.0346 82.7953 40.5633C82.7953 37.0919 85.2404 34.2852 89.094 34.2852C92.8362 34.2852 95.2814 37.0919 95.2814 40.5633C95.2814 43.9979 92.8362 46.8415 89.094 46.8415Z" fill="black"/>
<path d="M118.801 34.2851H118.653C117.282 32.3278 114.984 30.9615 112.057 30.9245C106.722 30.8506 102.758 34.876 102.758 40.6001C102.758 46.2874 106.648 50.3128 112.095 50.239C114.984 50.2019 117.282 48.9094 118.616 47.0629H118.801V49.7217H122.284V23.1323H118.801V34.2851ZM112.576 46.8781C108.723 46.8781 106.278 44.0717 106.278 40.6001C106.278 37.1287 108.723 34.322 112.576 34.322C116.319 34.322 118.764 37.1657 118.764 40.6001C118.764 44.0717 116.319 46.8781 112.576 46.8781Z" fill="black"/>
<path d="M135.544 30.9246C129.913 30.9246 126.059 35.2453 126.059 40.6002C126.059 45.8072 129.69 50.239 135.618 50.239C139.916 50.239 143.362 47.9124 144.585 44.0346H140.917C140.102 45.7705 138.138 46.8781 135.767 46.8781C132.432 46.8781 130.061 44.6624 129.801 41.8189H144.955C145.437 35.7254 141.621 30.9246 135.544 30.9246ZM135.47 34.2852C138.397 34.2852 140.583 36.0947 141.139 38.7167H129.876C130.394 36.1316 132.58 34.2852 135.47 34.2852Z" fill="black"/>
<path d="M169.926 30.9614C167.11 30.9614 164.961 32.3278 163.776 34.5067H163.664C162.59 32.3647 160.589 30.9614 157.847 30.9614C155.402 30.9614 153.55 32.254 152.438 34.0635H152.29V31.4415H148.918V49.7217H152.438V40.3416C152.438 36.9071 154.254 34.3959 156.996 34.322C159.589 34.2482 161.108 36.0947 161.108 38.8644V49.7217H164.628V40.0462C164.628 35.9469 167.073 34.322 169.185 34.322C171.742 34.322 173.261 36.0947 173.261 38.8644V49.7217H176.78V38.4951C176.78 34.0635 174.261 30.9614 169.926 30.9614Z" fill="black"/>
<path d="M189.381 46.8042L183.083 31.4414H179.192L187.566 51.4575L187.529 51.5314C186.936 53.0453 186.269 53.5994 184.639 53.5994H180.304V57.1075H184.639C187.825 57.1075 189.529 55.6674 190.715 52.5652L198.792 31.4414H195.198L189.381 46.8042Z" fill="black"/>
</g>
<defs>
<clipPath id="clip0">
<rect width="199" height="57.1551" fill="white"/>
</clipPath>
</defs>
</svg>
